<svg xmlns="http://www.w3.org/2000/svg" width="13" height="13" viewBox="0 0 13 13" fill="none">
<path d="M3.28006 12.3294H0.708984V3.76044H3.28006V12.3294ZM12.7058 12.3294H10.1347V7.75596C10.1347 6.56288 9.71007 5.96913 8.86729 5.96913C8.56734 5.95423 8.27186 6.0464 8.03358 6.22919C7.7953 6.41199 7.62973 6.67351 7.56642 6.96708V12.3332H4.99349C4.99349 12.3332 5.02787 4.62087 4.99349 3.76415H7.02284L7.17988 5.47758H7.23284C7.48686 5.03422 7.85498 4.66699 8.29895 4.41404C8.74292 4.16109 9.24654 4.03166 9.75745 4.03919C10.1543 4.01383 10.5517 4.07771 10.9206 4.22612C11.2894 4.37454 11.6204 4.60373 11.889 4.89684C12.4808 5.6273 12.7731 6.55525 12.7067 7.493L12.7058 12.3294Z" fill="url(#paint0_linear_467_140891)"/>
<path d="M1.99383 2.90218C2.72716 2.90218 3.32165 2.32683 3.32165 1.6171C3.32165 0.907378 2.72716 0.332031 1.99383 0.332031C1.2605 0.332031 0.666016 0.907378 0.666016 1.6171C0.666016 2.32683 1.2605 2.90218 1.99383 2.90218Z" fill="url(#paint1_linear_467_140891)"/>
<defs fill="#000000">
<linearGradient id="paint0_linear_467_140891" x1="4.22001" y1="4.88473" x2="19.8334" y2="14.085" gradientUnits="userSpaceOnUse" fill="#000000">
<stop stop-color="#a90b2f" fill="#000000"/>
<stop offset="1" stop-color="#a90b2f" fill="#000000"/>
</linearGradient>
<linearGradient id="paint1_linear_467_140891" x1="1.44256" y1="0.669099" x2="5.35546" y2="2.37007" gradientUnits="userSpaceOnUse" fill="#000000">
<stop stop-color="#a90b2f" fill="#000000"/>
<stop offset="1" stop-color="#a90b2f" fill="#000000"/>
</linearGradient>
</defs>
</svg>