<svg xmlns="http://www.w3.org/2000/svg" width="6" height="13" viewBox="0 0 6 13" fill="none" transform="matrix(1, 0, 0, 1, 0, 0)">
<path d="M5.90594 4.22153H4.00778V2.97579C3.99745 2.90182 4.00359 2.8265 4.02575 2.75518C4.04791 2.68387 4.08555 2.61833 4.13598 2.56325C4.1864 2.50817 4.24837 2.46491 4.31746 2.43655C4.38655 2.4082 4.46104 2.39545 4.53562 2.39923H5.8756V0.344547L4.03094 0.340554C3.69403 0.313856 3.35533 0.360564 3.03822 0.477455C2.72111 0.594346 2.43313 0.778639 2.19415 1.01762C1.95517 1.2566 1.77088 1.54458 1.65399 1.86169C1.5371 2.1788 1.49039 2.51749 1.51709 2.85441V4.22153H0.332031V6.3393H1.51629V12.3333H4.00778V6.3401H5.68874L5.90594 4.22153Z" fill="#a90b2f"/>
<defs fill="#000000">
<linearGradient id="paint0_linear_467_140886" x1="1.96193" y1="1.90702" x2="11.3675" y2="3.74506" gradientUnits="userSpaceOnUse" fill="#000000">
<stop stop-color="#8378ff" fill="#000000"/>
<stop offset="1" stop-color="#1e70eb" fill="#000000"/>
</linearGradient>
</defs>
</svg>