<svg width="24" height="25" viewBox="0 0 24 25" fill="none" xmlns="http://www.w3.org/2000/svg">
<path opacity="0.4" d="M5.73937 16.5837C5.84937 16.0937 5.64937 15.3937 5.29937 15.0437L2.86937 12.6137C2.10937 11.8537 1.80937 11.0437 2.02937 10.3437C2.25937 9.64368 2.96937 9.16368 4.02937 8.98368L7.14937 8.46368C7.59937 8.38368 8.14937 7.98368 8.35937 7.57368L10.0794 4.12368C10.5794 3.13368 11.2594 2.58368 11.9994 2.58368C12.7394 2.58368 13.4194 3.13368 13.9194 4.12368L15.6394 7.57368C15.7694 7.83368 16.0394 8.08368 16.3294 8.25368L5.55937 19.0237C5.41937 19.1637 5.17937 19.0337 5.21937 18.8337L5.73937 16.5837Z" fill="#AA0C2F"/>
<path d="M18.7008 15.0437C18.3408 15.4037 18.1408 16.0937 18.2608 16.5837L18.9508 19.5937C19.2408 20.8437 19.0608 21.7837 18.4408 22.2337C18.1908 22.4137 17.8908 22.5037 17.5408 22.5037C17.0308 22.5037 16.4308 22.3137 15.7708 21.9237L12.8408 20.1837C12.3808 19.9137 11.6208 19.9137 11.1608 20.1837L8.23078 21.9237C7.12078 22.5737 6.17078 22.6837 5.56078 22.2337C5.33078 22.0637 5.16078 21.8337 5.05078 21.5337L17.2108 9.3737C17.6708 8.9137 18.3208 8.7037 18.9508 8.8137L19.9608 8.9837C21.0208 9.1637 21.7308 9.6437 21.9608 10.3437C22.1808 11.0437 21.8808 11.8537 21.1208 12.6137L18.7008 15.0437Z" fill="#AA0C2F"/>
</svg>
